<?xml version="1.0" encoding="utf-8"?>
<!-- Generator: Adobe Illustrator 22.0.1, SVG Export Plug-In . SVG Version: 6.00 Build 0)  -->
<svg version="1.1" id="Слой_1" xmlns="http://www.w3.org/2000/svg" xmlns:xlink="http://www.w3.org/1999/xlink" x="0px" y="0px"
	 viewBox="0 0 60 30" style="enable-background:new 0 0 60 30;" xml:space="preserve">
<style type="text/css">
	.st0{fill:#FFFFFF;}
</style>
<g>
	<path class="st0" d="M8.8,7.7C8.6,7.8,8.3,7.9,8,7.9c-0.4,0-0.7-0.2-0.8-0.5c0-0.1-0.1-0.3-0.1-0.4s0-0.4,0.1-0.6l0.2-0.8
		C7.1,5.7,6.9,5.9,6.7,6.1S6.5,6.6,6.5,6.9c0,0.2,0,0.3,0.1,0.4c0,0,0,0,0,0C6.3,7.3,6.1,7.2,6,7c0-0.1,0-0.2,0-0.3
		C6,6.5,6,6.3,6.2,6.2c0.3-0.4,0.6-0.7,1.2-0.8c0.2-0.1,0.5-0.1,0.8-0.1c0.1,0,0.2,0,0.2,0L8,6.4C8,6.7,8,6.9,8,7
		c0,0.2,0,0.3,0.1,0.4s0.2,0.1,0.3,0.1c0.2,0,0.4-0.1,0.5-0.2l0.4-2.1h0.9l-1,4.5H8.4L8.8,7.7z"/>
	<path class="st0" d="M12.6,8.6c-0.4,0.7-1,1.1-1.6,1.1c-0.3,0-0.5-0.1-0.7-0.2S10,9.1,10,8.8c0-0.5,0.1-0.9,0.3-1.3
		c0.2-0.3,0.4-0.6,0.7-0.7c0.2-0.1,0.3-0.1,0.5-0.1c0.3,0,0.5,0.1,0.6,0.2s0.1,0.2,0.1,0.4c0,0.3-0.1,0.6-0.4,0.9s-0.6,0.4-1,0.4
		c0,0.1,0,0.2,0,0.2c0,0.2,0,0.3,0.1,0.4s0.2,0.1,0.3,0.1c0.2,0,0.4-0.1,0.6-0.2s0.3-0.3,0.5-0.5H12.6z M11.8,7.2
		c0-0.1,0-0.2-0.1-0.2c-0.1,0-0.3,0.1-0.4,0.4S11,7.9,10.9,8.2c0.2,0,0.4-0.1,0.6-0.3S11.8,7.4,11.8,7.2z"/>
	<path class="st0" d="M14.7,8.9c0,0.2,0.1,0.2,0.2,0.2c0.2,0,0.4-0.2,0.5-0.5l0.4-1.9h0.9l-0.4,2c0,0.1,0,0.1,0,0.2
		c0,0.1,0.1,0.2,0.2,0.2c0.2,0,0.4-0.2,0.5-0.5h0.3c-0.3,0.7-0.7,1.1-1.2,1.1c-0.4,0-0.6-0.2-0.6-0.6c-0.2,0.4-0.5,0.6-0.9,0.6
		s-0.6-0.2-0.6-0.6c-0.2,0.4-0.5,0.6-0.9,0.6c-0.2,0-0.3-0.1-0.5-0.2c-0.1-0.1-0.2-0.3-0.2-0.5c0-0.1,0-0.2,0-0.4l0.4-1.9h0.9
		l-0.4,2c0,0.1,0,0.1,0,0.2c0,0.2,0.1,0.2,0.2,0.2c0.2,0,0.4-0.2,0.5-0.5l0.4-1.9h0.9l-0.4,2C14.7,8.8,14.7,8.8,14.7,8.9z"/>
	<path class="st0" d="M18.4,6.6c0.5,0,0.7,0.2,0.7,0.5c0,0.2,0,0.3-0.1,0.3s-0.1,0.1-0.2,0.1s-0.2,0-0.2-0.1c0-0.1,0.1-0.2,0.1-0.4
		c0-0.2-0.1-0.2-0.2-0.2S18.2,7,18.1,7.3c-0.2,0.3-0.3,0.7-0.4,1.1c0,0.1,0,0.3,0,0.4c0,0.3,0.1,0.4,0.4,0.4c0.2,0,0.4-0.1,0.6-0.2
		s0.3-0.3,0.5-0.5h0.2c-0.4,0.7-1,1.1-1.6,1.1c-0.3,0-0.5-0.1-0.7-0.2s-0.3-0.4-0.3-0.7c0-0.5,0.1-0.9,0.3-1.3
		c0.2-0.3,0.4-0.6,0.7-0.7C18,6.7,18.2,6.6,18.4,6.6z"/>
	<path class="st0" d="M20.7,7.8c0.1,0,0.2,0,0.3,0c0.2,0,0.4,0,0.4,0.1s0.1,0.2,0.1,0.4c0,0,0,0.1,0,0.1l0,0.1c0,0.1,0,0.2,0,0.3
		c0,0.1,0.1,0.2,0.2,0.2c0.1,0,0.2,0,0.3-0.1s0.1-0.2,0.2-0.4h0.3c-0.3,0.7-0.6,1.1-1.1,1.1c-0.2,0-0.4-0.1-0.5-0.2
		s-0.2-0.3-0.2-0.5c0-0.1,0-0.2,0-0.3s0-0.2,0-0.3c0-0.2-0.1-0.3-0.2-0.3c-0.1,0-0.1,0-0.2,0.1l-0.2,0.1l-0.3,1.3H19l0.6-3h0.9
		l-0.3,1.2l0.4-0.4l0.3-0.3c0.2-0.2,0.3-0.3,0.5-0.4c0.1-0.1,0.2-0.1,0.4-0.1s0.2,0,0.3,0.1s0.1,0.2,0.1,0.3s0,0.2-0.1,0.3
		s-0.2,0.1-0.3,0.1s-0.2,0-0.3-0.1c0-0.1-0.1-0.1-0.1-0.1V7.1c-0.1,0.1-0.2,0.2-0.3,0.2l-0.2,0.2C20.8,7.7,20.8,7.7,20.7,7.8z"/>
	<path class="st0" d="M25.5,8.6c-0.3,0.7-0.7,1.1-1.2,1.1c-0.4,0-0.6-0.2-0.6-0.6c-0.2,0.4-0.5,0.6-0.9,0.6c-0.2,0-0.3-0.1-0.5-0.2
		c-0.1-0.1-0.2-0.3-0.2-0.5c0-0.1,0-0.2,0-0.4l0.4-1.9h0.9l-0.4,2c0,0.1,0,0.1,0,0.2c0,0.2,0.1,0.2,0.2,0.2c0.2,0,0.4-0.2,0.5-0.5
		l0.4-1.9h0.9l-0.4,2c0,0.1,0,0.1,0,0.2c0,0.1,0.1,0.2,0.2,0.2c0.2,0,0.4-0.2,0.5-0.5H25.5z"/>
	<path class="st0" d="M26,8.9c0,0.2,0.1,0.3,0.2,0.3c0.2,0,0.4-0.2,0.5-0.5l0.4-1.9H28l-0.4,2c0,0.1,0,0.1,0,0.2
		c0,0.1,0.1,0.2,0.2,0.2c0,0,0.1,0,0.2,0c0,0.2-0.1,0.4-0.2,0.5s-0.3,0.1-0.4,0.1s-0.3,0-0.4-0.1s-0.2-0.2-0.2-0.4
		c-0.2,0.4-0.5,0.6-0.9,0.6c-0.2,0-0.3-0.1-0.5-0.2c-0.1-0.1-0.2-0.3-0.2-0.5c0-0.1,0-0.2,0-0.4l0.4-1.9h0.9l-0.4,2
		C26,8.8,26,8.8,26,8.9z M26.4,5.4c0.3,0,0.4,0.1,0.4,0.3c0,0.1,0,0.2-0.1,0.3c0.1,0,0.1,0,0.2,0c0.4,0,0.7-0.2,0.9-0.7H28
		c-0.2,0.5-0.5,0.9-0.9,1c-0.1,0-0.3,0-0.5,0s-0.4,0-0.5-0.1S26,6,26,5.9s0-0.3,0.1-0.3S26.3,5.4,26.4,5.4z"/>
</g>
<g>
	<path class="st0" d="M23.6,18.3c0-1.3-0.5-2-1.5-2c-0.3,0-0.5,0.1-0.8,0.2L20,22.4h-2.3L20,11.7c-0.7,0-1.2,0.3-1.5,0.8
		c-0.4,0.5-0.5,1.3-0.5,2.5c0,0.4,0.1,0.7,0.2,1c0,0,0,0.1,0,0.1c-0.9,0-1.4-0.3-1.6-0.8c-0.1-0.2-0.1-0.5-0.1-0.9
		c0-0.4,0.1-0.9,0.3-1.4c0.2-0.5,0.5-0.9,0.9-1.3c1-0.9,2.4-1.3,4.2-1.3c0.2,0,0.4,0,0.6,0l0.8,0.1c0.8,0.1,1.4,0.1,1.9,0.1
		c0.5,0,0.9-0.1,1.3-0.2L26.4,11c-0.1,0.5-0.3,0.9-0.6,1.1c-0.2,0.1-0.4,0.2-0.8,0.2c-0.7,0-1.6-0.1-2.7-0.3l-0.8,3.7
		c0.6-0.2,1.2-0.3,1.6-0.3c0.9,0,1.6,0.3,2,0.8c0.5,0.5,0.7,1.3,0.7,2.2c0,0.9-0.3,1.8-0.8,2.7c-0.3,0.4-0.6,0.8-1.1,1.1
		c-0.4,0.3-1,0.4-1.6,0.4s-1.1-0.2-1.4-0.6c-0.1-0.2-0.2-0.4-0.2-0.7c0-0.2,0.1-0.5,0.2-0.8c0.3,0.4,0.6,0.6,1,0.6s0.6-0.1,0.8-0.3
		C23.3,20.4,23.6,19.5,23.6,18.3z"/>
	<path class="st0" d="M35.3,19.5c-0.7,2-1.7,3-3.2,3c-1,0-1.5-0.5-1.6-1.5c-0.6,1-1.4,1.5-2.4,1.5c-0.5,0-0.9-0.2-1.2-0.5
		c-0.3-0.3-0.5-0.8-0.5-1.5c0-0.3,0-0.7,0.1-1l1.1-5.1h2.3l-1.1,5.4c0,0.2,0,0.3,0,0.5c0,0.4,0.2,0.7,0.5,0.7c0.6,0,1-0.5,1.3-1.4
		l1.1-5.1h2.3l-1.1,5.4c0,0.2-0.1,0.4-0.1,0.6c0,0.4,0.2,0.5,0.7,0.5c0.6,0,1-0.5,1.3-1.4H35.3z"/>
	<path class="st0" d="M38.6,14.3c1.3,0,1.9,0.5,1.9,1.5c0,0.4-0.1,0.7-0.3,0.9c-0.2,0.2-0.4,0.3-0.6,0.3c-0.2,0-0.4-0.1-0.6-0.2
		c0.1-0.3,0.2-0.7,0.2-0.9c0-0.4-0.2-0.7-0.5-0.7s-0.6,0.3-1,0.8c-0.5,0.8-0.8,1.8-1,2.9c-0.1,0.3-0.1,0.7-0.1,1.1
		c0,0.8,0.4,1.2,1.1,1.2c0.6,0,1.1-0.1,1.6-0.4c0.4-0.3,0.9-0.7,1.3-1.2h0.5c-1.2,2-2.7,3-4.4,3c-0.8,0-1.4-0.2-1.8-0.6
		c-0.5-0.4-0.7-1-0.7-1.9c0-1.2,0.3-2.4,0.9-3.5c0.5-0.9,1.1-1.5,1.9-1.9C37.7,14.3,38.1,14.3,38.6,14.3z"/>
	<path class="st0" d="M47.5,19.5c-1.2,2-2.7,3-4.4,3c-0.8,0-1.4-0.2-1.8-0.6c-0.5-0.4-0.7-1-0.7-1.9c0-1.2,0.3-2.4,0.9-3.5
		c0.5-0.9,1.1-1.5,1.9-1.9c0.4-0.2,0.9-0.3,1.3-0.3c0.7,0,1.2,0.1,1.5,0.4c0.3,0.3,0.4,0.6,0.4,1.1c0,0.9-0.4,1.7-1.1,2.3
		c-0.7,0.6-1.6,1-2.6,1.1c0,0.3,0,0.5,0,0.6c0,0.5,0.1,0.9,0.3,1.1c0.2,0.2,0.5,0.3,0.8,0.3c0.6,0,1.1-0.1,1.6-0.4s0.9-0.7,1.3-1.2
		H47.5z M45.4,15.7c0-0.4-0.1-0.6-0.4-0.6c-0.4,0-0.8,0.4-1.1,1s-0.6,1.4-0.8,2.3c0.6,0,1.2-0.3,1.6-0.9S45.4,16.4,45.4,15.7z"/>
	<path class="st0" d="M48.7,21.9l-0.8,3.9l-2.4,0.6l2.7-12.6h2.3L50.2,15c0.5-0.5,1.2-0.7,1.9-0.7c0.9,0,1.5,0.4,1.8,1.3
		C54,16,54,16.3,54,16.8c0,0.4,0,0.8-0.1,1.3c0,0.4-0.1,0.8-0.3,1.3c-0.1,0.4-0.3,0.8-0.5,1.2c-0.2,0.4-0.4,0.7-0.7,1
		c-0.3,0.3-0.6,0.5-1,0.7s-0.9,0.3-1.5,0.3S48.9,22.3,48.7,21.9z M51.8,16.8c0-0.9-0.3-1.3-0.8-1.3c-0.2,0-0.4,0.1-0.6,0.2
		c-0.2,0.1-0.4,0.3-0.5,0.6L49,20.7c0.1,0.2,0.3,0.4,0.7,0.4s0.7-0.2,1-0.5c0.6-0.6,0.9-1.4,1.1-2.5C51.8,17.6,51.8,17.2,51.8,16.8z
		"/>
</g>
</svg>
